<svg width="64" height="20" viewBox="0 0 64 20" fill="none" xmlns="http://www.w3.org/2000/svg">
<path d="M16.3287 16.89L16.3287 16.89L16.3313 16.8926C17.5579 18.1033 19.0608 18.7095 20.8227 18.7095C22.5845 18.7095 24.0874 18.1033 25.314 16.8927L25.3153 16.8913C26.5416 15.665 27.1563 14.1617 27.1563 12.3987C27.1563 10.6359 26.5417 9.13965 25.3146 7.9282C24.0885 6.70236 22.5853 6.08786 20.8227 6.08786C19.0597 6.08786 17.5563 6.70258 16.33 7.92887C15.1182 9.14071 14.5118 10.6368 14.5118 12.3987C14.5118 14.1605 15.1181 15.6635 16.3287 16.89ZM29.1135 18.1047V18.39H29.3988H32.3431H32.6284V18.1047V1.44318V1.15788H32.3431H29.3988H29.1135V1.44318V18.1047ZM20.8227 15.2631C20.0121 15.2631 19.3485 14.9939 18.8118 14.4578C18.2918 13.9235 18.0267 13.2449 18.0267 12.3987C18.0267 11.5525 18.2918 10.8738 18.8118 10.3395C19.3485 9.80348 20.0121 9.53428 20.8227 9.53428C21.6339 9.53428 22.2979 9.80393 22.8348 10.3408C23.3698 10.8758 23.6414 11.5541 23.6414 12.3987C23.6414 13.2433 23.3698 13.9216 22.8348 14.4565C22.2979 14.9934 21.6339 15.2631 20.8227 15.2631Z" stroke="#EE7C92" stroke-width="0.570599"/>
<path d="M14.5389 18.39H15.1082L14.7674 17.9339L8.75659 9.88971L14.5376 2.30078L14.8866 1.8426H14.3106H10.6816H10.5419L10.4563 1.95289L5.48915 8.34808V2.1279V1.8426H5.20385H2.05414H1.76884V2.1279V18.1047V18.39H2.05414H5.20385H5.48915V18.1047V11.4634L10.6829 18.2776L10.7686 18.39H10.9098H14.5389ZM44.1674 6.4074H43.8821V6.6927V7.31337C42.9905 6.49324 41.8381 6.08786 40.4471 6.08786C38.8418 6.08786 37.4592 6.70994 36.313 7.93575L36.3129 7.93584C35.1797 9.14887 34.6156 10.6427 34.6156 12.3987C34.6156 14.1546 35.1796 15.6553 36.3116 16.883L36.3143 16.8858C37.4609 18.0961 38.8431 18.7095 40.4471 18.7095C41.8381 18.7095 42.9905 18.3041 43.8821 17.484V18.1047V18.39H44.1674H47.1117H47.397V18.1047V6.6927V6.4074H47.1117H44.1674ZM43.0502 10.2926L43.0501 10.2927L43.0553 10.2977C43.6025 10.8313 43.8821 11.5229 43.8821 12.3987C43.8821 13.2744 43.6025 13.9753 43.0527 14.525C42.5178 15.06 41.8395 15.3316 40.9949 15.3316C40.1509 15.3316 39.473 15.0604 38.9383 14.5262C38.4036 13.9771 38.1305 13.2759 38.1305 12.3987C38.1305 11.5207 38.404 10.8283 38.9371 10.2952L38.9396 10.2926C39.4751 9.74344 40.1525 9.46581 40.9949 9.46581C41.8372 9.46581 42.5147 9.74344 43.0502 10.2926ZM53.1823 18.39H53.4676V18.1047V17.4906C54.3481 18.3066 55.4933 18.7095 56.8798 18.7095C58.4983 18.7095 59.8815 18.0966 61.0139 16.8845C62.1617 15.657 62.7342 14.1558 62.7342 12.3987C62.7342 10.6422 62.1621 9.14833 61.014 7.93575C59.8821 6.70896 58.499 6.08786 56.8798 6.08786C55.4933 6.08786 54.3481 6.49076 53.4676 7.30679V2.1279V1.8426H53.1823H50.2381H49.9528V2.1279V18.1047V18.39H50.2381H53.1823ZM58.3874 10.2926L58.3873 10.2927L58.3925 10.2977C58.9397 10.8313 59.2193 11.5229 59.2193 12.3987C59.2193 13.2744 58.9396 13.9753 58.3899 14.525C57.8549 15.06 57.1767 15.3316 56.3321 15.3316C55.4881 15.3316 54.8102 15.0604 54.2755 14.5262C53.7408 13.9771 53.4676 13.2759 53.4676 12.3987C53.4676 11.5207 53.7411 10.8283 54.2742 10.2952L54.2768 10.2926C54.8122 9.74344 55.4897 9.46581 56.3321 9.46581C57.1744 9.46581 57.8519 9.74344 58.3874 10.2926Z" stroke="#76B1A6" stroke-width="0.570599"/>
<path d="M44.738 6.69267H47.6823V18.1047H44.738V16.758C43.8554 17.8688 42.6153 18.4242 41.0177 18.4242C39.4961 18.4242 38.1875 17.846 37.0919 16.6896C36.0116 15.5179 35.4714 14.0876 35.4714 12.3987C35.4714 10.7097 36.0116 9.28699 37.0919 8.13058C38.1875 6.95895 39.4961 6.37313 41.0177 6.37313C42.6153 6.37313 43.8554 6.92851 44.738 8.03928V6.69267ZM39.3059 14.7267C39.8993 15.3201 40.6525 15.6168 41.5654 15.6168C42.4784 15.6168 43.2316 15.3201 43.825 14.7267C44.4337 14.1181 44.738 13.3421 44.738 12.3987C44.738 11.4553 44.4337 10.6869 43.825 10.0934C43.2316 9.4848 42.4784 9.18048 41.5654 9.18048C40.6525 9.18048 39.8993 9.4848 39.3059 10.0934C38.7124 10.6869 38.4157 11.4553 38.4157 12.3987C38.4157 13.3421 38.7124 14.1181 39.3059 14.7267Z" fill="#76B1A6"/>
<path d="M57.4504 6.37313C58.9872 6.37313 60.2958 6.95895 61.3761 8.13058C62.4717 9.28699 63.0194 10.7097 63.0194 12.3987C63.0194 14.0876 62.4717 15.5179 61.3761 16.6896C60.2958 17.846 58.9872 18.4242 57.4504 18.4242C55.8527 18.4242 54.6202 17.8688 53.7529 16.758V18.1047H50.8086V2.12787H53.7529V8.03928C54.6202 6.92851 55.8527 6.37313 57.4504 6.37313ZM54.643 14.7267C55.2365 15.3201 55.9897 15.6168 56.9026 15.6168C57.8156 15.6168 58.5688 15.3201 59.1622 14.7267C59.7708 14.1181 60.0751 13.3421 60.0751 12.3987C60.0751 11.4553 59.7708 10.6869 59.1622 10.0934C58.5688 9.4848 57.8156 9.18048 56.9026 9.18048C55.9897 9.18048 55.2365 9.4848 54.643 10.0934C54.0496 10.6869 53.7529 11.4553 53.7529 12.3987C53.7529 13.3421 54.0496 14.1181 54.643 14.7267Z" fill="#76B1A6"/>
<path d="M11.4804 18.1047L5.7744 10.6184V18.1047H2.62469V2.12787H5.7744V9.18048L11.2522 2.12787H14.9348L9.0303 9.18048L10.0723 10.6184L15.6294 18.1047H11.4804Z" fill="#76B1A6"/>
<path d="M25.6841 16.6896C24.5124 17.846 23.0821 18.4242 21.3932 18.4242C19.7042 18.4242 18.2739 17.846 17.1023 16.6896C15.9458 15.518 15.3676 14.0877 15.3676 12.3987C15.3676 10.7097 15.9458 9.28702 17.1023 8.1306C18.2739 6.95897 19.7042 6.37316 21.3932 6.37316C23.0821 6.37316 24.5124 6.95897 25.6841 8.1306C26.8557 9.28702 27.4415 10.7097 27.4415 12.3987C27.4415 14.0877 26.8557 15.518 25.6841 16.6896ZM19.1792 14.6583C19.7727 15.2517 20.5106 15.5484 21.3932 15.5484C22.2757 15.5484 23.0137 15.2517 23.6071 14.6583C24.2005 14.0648 24.4972 13.3116 24.4972 12.3987C24.4972 11.4857 24.2005 10.7325 23.6071 10.1391C23.0137 9.54569 22.2757 9.24898 21.3932 9.24898C20.5106 9.24898 19.7727 9.54569 19.1792 10.1391C18.601 10.7325 18.3119 11.4857 18.3119 12.3987C18.3119 13.3116 18.601 14.0648 19.1792 14.6583Z" fill="#EE7C92"/>
<path d="M29.9693 18.1047V1.44318H32.9136V18.1047H29.9693Z" fill="#EE7C92"/>
</svg>
