<svg width="427" height="423" viewBox="0 0 427 423" fill="none" xmlns="http://www.w3.org/2000/svg">
<path d="M145.384 223.715C145.384 102.605 243.564 4.42499 364.674 4.42499C371.316 4.42499 376.7 9.80903 376.7 16.4506V398.982C376.7 412.026 366.126 422.6 353.082 422.6H167.124C155.117 422.6 145.384 412.867 145.384 400.86V223.715Z" fill="#EEF9FE"/>
<g clip-path="url(#clip0_394_323)">
<path d="M205.838 275.112L207.377 292.768L212.366 350.201L215.63 387.808L224.463 483.877L255.515 486.699L270.352 324.158C270.352 324.158 275.59 243.672 247.378 241.451C219.155 239.23 206.148 250.136 205.838 275.112Z" fill="#5A9687"/>
<path d="M196.89 279.664C199.193 283.335 202.161 285.072 202.914 289.521C203.714 294.239 203.175 299.234 203.448 304.008C204.228 317.64 204.945 331.275 205.755 344.905C207.354 371.834 208.653 399.566 213.582 426.125C213.896 427.815 211.343 428.556 210.977 426.843C208.538 415.427 207.835 403.688 206.757 392.085C205.511 378.674 204.462 365.252 203.694 351.805C202.956 338.885 202.357 325.957 201.715 313.032C201.434 307.366 201.059 301.707 201.124 296.034C201.153 293.557 201.379 290.701 200.604 288.316C199.629 285.312 196.833 283.281 195.212 280.645C194.555 279.576 196.227 278.607 196.89 279.664Z" fill="white"/>
<path d="M203.448 422.537C206.367 429.661 209.196 438.115 209.709 445.845C210.31 454.883 210.143 463.888 211.399 472.899C211.6 474.334 209.398 474.949 209.203 473.504C208.115 465.46 206.477 457.445 206.437 449.305C206.393 440.248 203.442 431.661 202.768 422.629C202.737 422.206 203.313 422.207 203.448 422.537Z" fill="white"/>
<path d="M254.617 298.062C254.617 298.062 247.286 297.744 245.366 295.46C245.366 295.46 239.257 269.273 239.606 256.71" fill="#473C6B"/>
<path d="M254.617 298.062C254.617 298.062 247.286 297.744 245.366 295.46C245.366 295.46 239.257 269.273 239.606 256.71" stroke="#473C6B" stroke-width="1.16544" stroke-miterlimit="10" stroke-linecap="round" stroke-linejoin="round"/>
<path d="M244.573 263.623L252.293 296.763L255.458 307.012L296.378 439.708L320.846 487.103C320.846 487.103 347.058 488.194 347.058 487.103C347.058 485.998 320.618 275.646 320.618 275.646C320.618 275.646 316.758 241.364 283.049 237.531C249.339 233.697 244.573 263.623 244.573 263.623Z" fill="#80BDAE"/>
<path d="M332.838 302.455C333.439 311.789 336.206 321.262 337.798 330.484C339.419 339.877 340.981 349.282 342.402 358.707C342.66 360.417 340.089 361.196 339.753 359.437C337.828 349.341 336.033 339.212 334.37 329.069C332.933 320.303 330.916 311.379 331.654 302.455C331.717 301.699 332.789 301.689 332.838 302.455Z" fill="white"/>
<path d="M343.452 373.924C343.445 376.672 343.799 379.386 344.371 382.071C344.836 384.251 345.592 386.341 345.675 388.583C345.7 389.254 344.761 389.677 344.303 389.151C340.849 385.186 340.984 378.849 341.487 373.924C341.613 372.693 343.456 372.633 343.452 373.924Z" fill="#FEFAFA"/>
<path d="M349.971 401.704C352.252 413.852 352.501 426.46 354.379 438.704C356.277 451.076 358.74 463.262 361.57 475.446C361.795 476.414 360.394 476.797 360.084 475.855C356.098 463.717 352.992 451.121 351.006 438.501C349.145 426.678 346.981 413.913 348.172 401.947C348.266 401.005 349.765 400.607 349.971 401.704Z" fill="#FEFAFA"/>
<path d="M137.837 158.295C137.468 157.998 133.399 158.009 133.399 158.009C133.399 158.009 116.525 152.605 112.35 149.86C108.174 147.114 111.2 144.145 115.018 145.535C118.836 146.925 129.327 146.023 129.327 146.023L134.878 152.431L137.837 158.295Z" fill="#EFA097"/>
<path d="M128.333 136.077C128.333 136.077 114.955 132.426 113.288 129.79C111.621 127.153 113.216 124.787 117.025 125.719C120.834 126.65 130.9 128.714 130.9 128.714L128.333 136.077Z" fill="#EFA097"/>
<path d="M129.786 126.838C129.786 126.838 116.407 123.188 114.741 120.551C113.074 117.915 114.669 115.549 118.477 116.481C122.286 117.412 132.352 119.476 132.352 119.476L129.786 126.838Z" fill="#EFA097"/>
<path d="M129.966 118.936C129.966 118.936 117.616 112.628 116.523 109.706C115.43 106.784 117.475 104.794 121.013 106.485C124.551 108.175 132.286 113.252 132.286 113.252L129.966 118.936Z" fill="#EFA097"/>
<path d="M121.515 102.825C123.469 104.123 127.975 107.941 131.172 110.943C132.945 112.609 134.315 114.022 134.615 114.633C135.464 116.34 143.385 141.657 143.385 141.657L166.36 162.902L148.252 173.85C148.252 173.85 138.957 175.029 138.437 174.612C137.918 174.196 134.615 166.624 134.615 166.624C134.615 166.624 132.508 161.68 128.988 159.701C125.456 157.718 122.405 152.805 122.263 150.641C122.122 148.477 124.68 116.905 124.184 114.969C123.688 113.033 116.456 106.442 116.406 103.854C116.346 101.25 118.488 100.799 121.515 102.825Z" fill="#F5C3C0"/>
<path d="M130.902 110.554C132.674 112.22 134.044 113.633 134.344 114.244C135.193 115.951 143.114 141.268 143.114 141.268L167.101 163.624L154.297 170.34C152.651 165.857 144.351 151.58 140.038 148.984C133.732 145.209 134.409 140.2 133.237 127.122C132.61 120.155 131.912 114.632 130.902 110.554Z" fill="#EFA097"/>
<path d="M134.658 175.123C134.658 175.123 146.859 210.62 161.938 232.246C167.97 240.906 174.461 247.333 180.829 248.4C187.394 249.492 192.619 248.301 196.926 245.596C207.265 239.12 212.428 223.983 218.46 210.62C218.559 210.397 218.658 210.161 218.758 209.913C218.832 209.714 218.907 209.516 218.981 209.317C224.244 194.292 215.183 156.772 210.008 137.95C208.146 131.176 206.793 126.821 206.793 126.821C206.793 126.821 198.329 129.613 196.926 132.925C195.524 136.238 186.985 189.788 186.985 189.788L170.651 154.526C170.651 154.526 160.226 159.638 149.986 165.433C144.178 168.708 138.431 172.219 134.658 175.123Z" fill="#EE9087"/>
<path d="M196.308 125.849C194.929 127.076 193.583 129.131 192.64 130.724C191.838 132.081 191.476 134.357 190.11 135.189C189.748 135.41 189.235 135.272 189.026 134.905C188.085 133.251 189.696 130.627 190.642 129.248C192.077 127.157 193.579 126.281 195.767 125.148C196.197 124.925 196.705 125.496 196.308 125.849Z" fill="white"/>
<path d="M188.538 142.07C187.158 152.316 187.423 162.795 185.897 172.967C185.755 173.916 184.124 173.916 183.98 172.967C182.454 162.866 184.848 151.524 187.526 141.791C187.711 141.119 188.626 141.423 188.538 142.07Z" fill="white"/>
<path d="M136.36 191.877C140.295 200.251 144.369 208.621 148.728 216.785C153.109 224.991 158.591 232.564 162.974 240.733C163.587 241.874 162.014 243.258 161.098 242.181C155.106 235.128 150.532 226.395 146.186 218.27C141.712 209.906 138.033 201.427 134.992 192.453C134.724 191.661 135.997 191.105 136.36 191.877Z" fill="white"/>
<path d="M168.258 247.958C171.169 251.456 175.145 253.359 178.748 255.974C179.735 256.69 179.19 258.386 177.879 258.034C173.12 256.758 169.845 252.643 167.276 248.715C166.893 248.13 167.8 247.408 168.258 247.958Z" fill="white"/>
<path d="M134.658 175.122C134.658 175.122 146.859 210.62 161.938 232.245C167.97 240.906 174.461 247.333 180.829 248.4C187.394 249.492 192.619 248.301 196.926 245.596C207.265 239.119 212.428 223.982 218.46 210.62C218.559 210.396 218.658 210.16 218.758 209.912C218.832 209.714 218.907 209.515 218.981 209.317C224.244 194.292 215.183 156.772 210.008 137.95C205.602 150.655 199.011 171.164 198.105 182.666C196.727 200.16 189.305 215.434 186.103 209.069C182.901 202.704 179.19 205.495 175.479 209.069C171.979 212.419 156.254 183.72 149.986 165.432C144.178 168.708 138.431 172.219 134.658 175.122Z" fill="#F08175"/>
<path d="M168.937 163.867C168.937 163.867 149.943 172.376 142.497 177.085L168.937 163.867Z" fill="white"/>
<path d="M168.937 163.867C168.937 163.867 149.943 172.376 142.497 177.085" stroke="white" stroke-width="1.16544" stroke-miterlimit="10" stroke-linecap="round" stroke-linejoin="round"/>
<path d="M146.334 185.209C144.928 185.209 143.789 184.07 143.789 182.664C143.789 181.259 144.928 180.12 146.334 180.12C147.74 180.12 148.879 181.259 148.879 182.664C148.879 184.07 147.74 185.209 146.334 185.209Z" fill="white" stroke="white" stroke-width="1.16544" stroke-miterlimit="10" stroke-linecap="round" stroke-linejoin="round"/>
<path d="M151.424 194.842C150.019 194.842 148.879 193.703 148.879 192.298C148.879 190.893 150.019 189.754 151.424 189.754C152.83 189.754 153.97 190.893 153.97 192.298C153.97 193.703 152.83 194.842 151.424 194.842Z" fill="white" stroke="white" stroke-width="1.16544" stroke-miterlimit="10" stroke-linecap="round" stroke-linejoin="round"/>
<path d="M246.107 129.061L265.118 129.424L269.141 94.8101L269.725 89.842L250.255 90.4585L247.858 112.724L246.107 129.061Z" fill="#F5C3C0"/>
<path d="M247.496 112.758C258.261 109.144 265.233 100.937 269.132 94.8174L269.725 89.842L249.933 90.4594L247.496 112.758Z" fill="#CF8E87"/>
<path d="M241.244 104.425C243.221 105.672 247.844 105.814 251.664 104.425C258.608 104.734 266.714 98.7197 272.381 92.6866C274.509 90.4435 276.057 87.9296 277.198 85.3772C280.699 77.8357 280.602 70.2362 280.602 70.2362C281.202 65.7499 281.241 61.6698 280.506 58.0924C279.577 53.587 277.411 49.9515 273.619 47.4957C271.376 46.0648 268.571 45.0398 265.128 44.4985C249.692 42.1007 220.752 42.2257 225.962 63.8014C231.172 85.3772 228.046 96.0917 241.244 104.425Z" fill="#F5C3C0"/>
<path d="M293.015 89.7343C297.228 73.5088 302.836 57.5315 297.119 40.8262C293.996 31.7005 288.977 26.1424 279.693 23.2851C268.026 19.6944 253.106 18.4314 244.733 29.6086C243.128 31.7511 240.12 29.4876 241.798 27.3445C253.31 12.6337 282.163 12.8498 295.064 26.105C311.309 42.7955 304.016 72.6636 296.056 91.0162C295.29 92.7834 292.555 91.504 293.015 89.7343Z" fill="white"/>
<path d="M231.771 36.6282C227.394 41.9943 224.685 50.1753 223.046 56.7922C221.607 62.6029 222.26 69.2849 219.321 74.5232C218.613 75.7837 216.918 75.3438 216.466 74.1503C214.066 67.7976 216.858 58.042 219.016 51.8629C221.55 44.6074 225.246 40.6562 230.975 35.832C231.534 35.3607 232.229 36.0671 231.771 36.6282Z" fill="white"/>
<path d="M248.191 105.119C258.611 105.814 266.714 98.7195 272.381 92.6863C274.509 90.4432 276.057 87.9293 277.198 85.3769C280.699 77.8354 280.602 70.2359 280.602 70.2359C281.202 65.7497 281.241 61.6696 280.506 58.0922C279.577 53.5867 277.411 49.9513 273.619 47.4954C273.407 47.7081 273.233 47.9595 273.116 48.2496C271.492 52.2716 267.797 55.9845 267.797 55.9845C267.797 55.9845 262.544 92.5692 248.191 105.119Z" fill="#EFA097"/>
<path d="M271.253 79.7358L270.892 85.1556L277.205 85.3801C280.695 77.8276 280.599 70.2277 280.599 70.2277C281.208 65.7486 281.25 61.6644 280.51 58.0971C276.42 57.557 269.538 64.7564 269.538 64.7564L268.51 77.2587L271.253 79.7358Z" fill="#3B3736"/>
<path d="M274.203 79.2435C274.203 79.2435 279.017 72.1767 284.627 75.9244C290.236 79.6722 284.38 99.4815 269.699 90.8363L274.203 79.2435Z" fill="#F5C3C0"/>
<path d="M287.681 62.2322C286.255 65.1825 282.06 72.2528 280.145 74.9121L268.336 77.3425L269.378 66.2319C269.378 66.2319 263.834 66.9334 261.931 62.9822C261.884 62.8923 261.842 62.7995 261.806 62.7044C261.271 61.4058 259.083 55.5658 258.541 46.0384C258.541 46.0384 244.843 54.8089 236.966 56.8921C234.131 57.6421 230.603 57.0588 227.241 55.9963C220.496 53.8714 213.438 44.5107 213.459 37.4416C213.459 37.3953 213.459 37.349 213.459 37.3027C213.612 26.8864 219.968 33.1362 219.968 33.1362C219.968 33.1362 220.211 24.7615 225.226 23.4144C230.241 22.0672 234.659 29.06 234.659 29.06C244.103 25.2587 254.176 23.2636 264.355 23.1783C284.549 23.1296 281.721 37.4763 281.721 37.4763C281.721 37.4763 296.962 39.8581 287.681 62.2322Z" fill="#5B1C10"/>
<path d="M280.145 74.9121L268.336 77.3425L271.114 79.773L270.767 85.3283H271.809L274.24 79.0786C276.356 76.6399 278.061 75.6065 280.145 74.9121Z" fill="#5B1C10"/>
<path d="M198.105 274.468C198.105 274.468 215.308 286.404 234.198 293.116L242.935 267.929L260.125 295.461C275.478 293.352 302.398 288.252 325.012 276.639L310.428 214.292L311.868 183.659L314.313 131.784C314.313 131.784 288.758 121.101 261.292 117.999C261.292 117.999 225.87 120.158 206.793 126.821C206.793 126.821 202.76 182.344 209.896 221.737L204.485 245.919L198.105 274.468Z" fill="#EE9087"/>
<path d="M297.451 121.882C293.261 121.713 288.715 120.357 284.829 118.841C283.089 118.163 283.737 115.444 285.618 115.978C289.621 117.115 293.882 118.097 297.763 119.579C298.916 120.02 298.869 121.939 297.451 121.882Z" fill="white"/>
<path d="M241.096 113.448C227.909 116.494 215.013 118.947 202.093 123.164C201.214 123.451 200.609 122.068 201.457 121.654C213.339 115.844 227.631 111.706 240.941 112.307C241.57 112.336 241.76 113.294 241.096 113.448Z" fill="white"/>
<path d="M278.286 116.352C277.019 116.291 275.806 116.183 274.642 115.654C273.485 115.128 272.392 114.393 271.609 113.385C270.992 112.59 270.834 111.521 271.609 110.746C272.284 110.071 273.585 109.982 274.249 110.746C275.442 112.121 276.821 113.639 278.565 114.296C279.596 114.684 279.55 116.413 278.286 116.352Z" fill="white"/>
<path d="M198.01 258.076C196.409 261.298 195.253 264.516 194.753 268.082C194.447 270.269 194.487 272.377 192.62 273.771C192.032 274.209 191.343 273.598 191.292 273.009C191.177 271.672 191.64 270.562 191.895 269.254C192.189 267.748 192.313 266.198 192.814 264.739C193.725 262.088 195.486 259.802 197.046 257.512C197.451 256.918 198.331 257.429 198.01 258.076Z" fill="white"/>
<path d="M198.105 274.468C198.105 274.468 215.308 286.404 234.198 293.116L242.389 269.492L242.935 267.929L243.754 269.232L260.125 295.461C275.478 293.352 302.398 288.252 325.012 276.639L323.746 271.217L317.503 244.529L310.428 214.292L311.868 183.659C298.7 202.195 276.533 219.044 267.634 222.345C255.334 226.898 232.547 221.811 221.066 219.206C209.586 216.6 230.176 226.749 241.731 232.593C247.614 235.571 245.79 241.874 236.841 245.385C230.065 248.053 219.192 249.12 204.485 245.919L202.089 256.626L198.105 274.468Z" fill="#F08175"/>
<path d="M202.09 256.626C207.861 261.341 222.68 273.016 227.074 272.272C229.457 271.862 235.873 270.696 242.389 269.493L242.935 267.929L243.755 269.232C251.797 267.743 259.554 266.291 259.554 266.291L262.396 278.252C262.396 278.252 302.808 274.182 323.746 271.217L317.503 244.529L236.841 245.385C230.065 248.053 219.192 249.12 204.485 245.919L202.09 256.626Z" fill="#D36265"/>
<path d="M244.571 209.072C244.571 209.072 242.741 247.63 242.945 262.821L244.571 209.072Z" fill="white"/>
<path d="M244.571 209.072C244.571 209.072 242.741 247.63 242.945 262.821" stroke="white" stroke-width="1.16544" stroke-miterlimit="10" stroke-linecap="round" stroke-linejoin="round"/>
<path d="M253.306 225.481C251.572 225.481 250.166 224.075 250.166 222.342C250.166 220.608 251.572 219.203 253.306 219.203C255.04 219.203 256.446 220.608 256.446 222.342C256.446 224.075 255.04 225.481 253.306 225.481Z" fill="white"/>
<path d="M252.298 250.695C250.564 250.695 249.158 249.29 249.158 247.556C249.158 245.822 250.564 244.417 252.298 244.417C254.032 244.417 255.438 245.822 255.438 247.556C255.438 249.29 254.032 250.695 252.298 250.695Z" fill="#1B2D3D"/>
<path d="M230.4 167.405C226.714 174.939 224.558 186.747 224.558 186.747L244.847 202.518L271.944 192.504C273.52 184.982 272.958 168.91 272.958 168.91L284.96 167.231C290.731 142.899 284.476 124.474 284.476 124.474C281.15 123.467 277.898 122.685 274.733 122.093C261.925 119.652 250.717 120.209 243.146 121.228C236.717 122.105 232.895 123.301 232.895 123.301C227.371 132.873 222.189 163.355 222.189 163.355L230.4 167.405Z" fill="#D36265"/>
<path d="M230.4 165.743C226.714 173.634 225.398 183.088 225.398 183.088L244.847 202.518L272.959 188.597C274.535 180.718 272.959 167.318 272.959 167.318L284.787 164.7C290.558 139.216 284.476 120.778 284.476 120.778C281.15 119.724 277.898 118.905 274.733 118.285C261.925 115.729 250.717 116.312 243.146 117.379C236.717 118.297 232.895 119.55 232.895 119.55C227.372 129.575 222.506 160.259 222.506 160.259L230.4 165.743Z" fill="white"/>
<path d="M245.628 200.421C262.148 173.398 272.946 126.449 274.733 118.285C261.925 115.729 250.717 116.312 243.146 117.379C238.864 160.68 245.628 200.421 245.628 200.421Z" fill="#F19B51"/>
<path d="M256.446 128.874C256.446 128.874 247.959 167.391 246.174 190.979" stroke="white" stroke-width="1.16544" stroke-miterlimit="10" stroke-linecap="round" stroke-linejoin="round"/>
<path d="M267.583 112.173C263.725 110.709 251.789 109.704 246.604 112.173C246.604 112.173 244.881 116.209 244.718 118.809C244.718 118.809 246.363 121.043 253.477 122.232C260.59 123.421 269.03 119.946 269.03 119.946L267.583 112.173Z" fill="#F19B51"/>
<path d="M244.03 121.531C244.069 122.701 244.275 123.64 244.648 123.974C245.921 125.067 252.919 123.28 252.919 123.28C252.919 123.28 254.412 121.325 253.614 118.792C253.614 118.792 253.408 118.611 253.048 118.316C251.569 117.12 247.581 114.033 246.05 114.445C244.712 114.818 243.94 118.792 244.03 121.531Z" fill="#DF6561"/>
<path d="M244.03 121.531C244.069 122.701 244.275 123.64 244.648 123.974C245.921 125.067 252.92 123.28 252.92 123.28C252.92 123.28 254.412 121.325 253.614 118.792C253.614 118.792 253.408 118.612 253.048 118.316C251.376 119.062 250.745 120.348 250.179 121.556C249.639 122.701 245.291 123.37 244.03 121.531Z" fill="#BE5552"/>
<path d="M252.005 122.457C252.289 124.579 253.626 125.415 255.543 125.582C257.987 125.801 260.187 125.376 260.702 121.737C260.985 119.757 260.856 118.368 260.2 117.493C259.647 116.747 258.733 116.362 257.396 116.271C254.823 116.091 252.43 116.786 252.018 120.438C251.928 121.21 251.928 121.878 252.005 122.457Z" fill="#DF6561"/>
<path d="M252.006 122.457C252.289 124.578 253.627 125.414 255.544 125.582C257.988 125.8 260.188 125.376 260.703 121.736C260.986 119.756 260.857 118.367 260.201 117.493C260.059 119.563 259.352 123.537 256.02 123.575C253.872 123.588 252.675 123.035 252.006 122.457Z" fill="#BE5552"/>
<path d="M259.8 119.235C259.8 119.235 266.555 116.071 268.251 117.083C269.948 118.095 268.564 125.915 267.039 126.629C265.514 127.344 259.255 123.741 259.255 123.741C259.255 123.741 258.344 121.458 259.8 119.235Z" fill="#DF6561"/>
<path d="M199.098 233.623C199.892 237.407 201.133 244.28 202.511 248.251C203.008 249.715 203.529 250.782 204.038 251.154C205.962 252.531 220.421 261.713 225.001 263.623C229.58 265.534 266.827 260.125 266.827 260.125L264.543 248.077L263.19 240.968C263.19 240.968 235.24 226.761 231.74 225.794C228.252 224.826 227.408 226.588 228.376 229.268C229.332 231.935 238.008 239.144 238.008 239.144C238.008 239.144 219.341 237.258 216.573 235.918C213.793 234.59 204.398 224.466 200.55 223.511C196.69 222.543 198.018 228.449 199.098 233.623Z" fill="#F5C3C0"/>
<path d="M202.511 248.251C203.008 249.715 203.529 250.782 204.038 251.154C205.962 252.531 220.421 261.713 225.001 263.623C229.58 265.534 266.827 260.125 266.827 260.125L264.543 248.077C253.882 251.142 233.602 254.864 225.994 255.149C219.564 255.397 208.978 251.166 202.511 248.251Z" fill="#EFA097"/>
<path d="M205.01 237.149C205.01 237.149 210.802 241.728 211.63 242.452C212.457 243.176 221.248 245.761 221.248 245.761" stroke="#1B2D3D" stroke-width="1.16544" stroke-miterlimit="10" stroke-linecap="round" stroke-linejoin="round"/>
<path d="M205.838 244.416C205.838 244.416 217.111 251.55 218.456 252.378" stroke="#1B2D3D" stroke-width="1.16544" stroke-miterlimit="10" stroke-linecap="round" stroke-linejoin="round"/>
<path d="M261.565 237.06C261.565 237.06 262.148 245.621 263.315 255.001C263.985 260.361 264.854 265.981 265.921 270.41C265.921 270.41 292.966 268.537 310.974 266.18C317.279 265.361 322.48 264.48 325.012 263.586C334.804 260.187 337.969 253.611 338.217 248.995C338.23 248.685 338.23 247.928 338.205 246.787C338.155 244.727 338.044 241.452 337.845 237.27C336.592 209.652 332.26 142.962 325.012 136.064C325.012 136.064 318.508 133.421 314.313 131.783C314.313 131.783 298.054 145.68 294.889 159.489C294.889 159.489 291.749 203.684 296.366 222.183L297.322 225.632L261.565 237.06Z" fill="#EE9087"/>
<path d="M338.083 162.035C338.043 156.65 335.705 150.897 334.363 145.681C333.156 140.994 332.435 135.805 328.57 132.502C321.918 126.818 311.093 126.363 303.209 122.98C301.991 122.457 302.926 120.784 304.052 120.98C310.345 122.077 316.772 124.117 322.815 126.195C326.631 127.507 330.448 129.278 332.906 132.611C335.674 136.367 336.413 141.475 337.547 145.878C339.035 151.66 340.12 156.261 339.246 162.192C339.146 162.866 338.088 162.683 338.083 162.035Z" fill="white"/>
<path d="M340.337 177.551C343.21 195.876 345.62 214.316 347.119 232.819C348.266 246.991 346.188 261.521 332.448 268.996C331.714 269.396 331.016 268.469 331.569 267.857C334.204 264.938 337.478 262.803 339.908 259.657C342.803 255.91 344.301 251.509 344.826 246.822C345.579 240.103 344.475 233.29 343.712 226.626C341.847 210.333 340.423 194.028 339.503 177.664C339.477 177.194 340.262 177.074 340.337 177.551Z" fill="white"/>
<path d="M349.797 260.937C345.225 269.502 338.001 276.927 329.099 281.031C327.6 281.722 326.29 279.618 327.781 278.776C336.153 274.047 343.153 268.241 348.64 260.26C349.125 259.555 350.208 260.167 349.797 260.937Z" fill="white"/>
<path d="M294.889 159.489C294.889 159.489 294.042 171.411 293.875 185.463L294.889 159.489Z" fill="#D36265"/>
<path d="M306.805 139.293C302.091 144.596 296.593 152.055 294.889 159.489C294.889 159.489 294.44 145.764 299.143 138.359" fill="#D36265"/>
<path d="M263.315 255.001C263.985 260.361 264.854 265.981 265.921 270.41C265.921 270.41 292.965 268.537 310.974 266.18C317.279 265.361 322.48 264.48 325.012 263.586C334.804 260.187 337.969 253.611 338.217 248.995C338.23 248.685 338.23 247.928 338.205 246.787C320.159 252.928 283.111 254.566 263.315 255.001Z" fill="#F08175"/>
<path d="M266.831 238.677C266.831 238.677 268.005 255.013 270.354 263.621L266.831 238.677Z" fill="white"/>
<path d="M266.831 238.677C266.831 238.677 268.005 255.013 270.354 263.621" stroke="white" stroke-width="1.16544" stroke-miterlimit="10" stroke-linecap="round" stroke-linejoin="round"/>
<path d="M288.743 262.821C287.253 262.821 286.045 261.613 286.045 260.124C286.045 258.635 287.253 257.428 288.743 257.428C290.232 257.428 291.44 258.635 291.44 260.124C291.44 261.613 290.232 262.821 288.743 262.821Z" fill="white"/>
<path d="M280.351 263.621C278.861 263.621 277.654 262.414 277.654 260.924C277.654 259.435 278.861 258.228 280.351 258.228C281.841 258.228 283.048 259.435 283.048 260.924C283.048 262.414 281.841 263.621 280.351 263.621Z" fill="white"/>
<path d="M244.06 84.8722C243.994 84.8908 243.923 84.9033 243.851 84.9072C243.66 84.9197 239.166 85.1587 237.423 81.4977C237.237 81.1058 237.321 80.6385 237.633 80.3372C240.372 77.6988 242.081 71.4601 242.099 71.3971C242.243 70.8554 242.802 70.5405 243.336 70.6866C243.873 70.8325 244.192 71.3856 244.046 71.9235C243.976 72.1845 242.382 77.9951 239.588 81.2033C240.945 83.0251 243.699 82.8962 243.729 82.8939C244.283 82.8635 244.76 83.2874 244.792 83.8418C244.821 84.3237 244.508 84.7468 244.06 84.8722Z" fill="#5B1C10"/>
<path d="M249.379 92.5873C243.775 94.1568 239.607 92.8459 239.396 92.7773C238.867 92.6053 238.579 92.0385 238.75 91.5089L253.607 89.7967C253.852 90.2978 253.644 90.902 253.144 91.1463C251.84 91.7846 250.578 92.2516 249.379 92.5873Z" fill="#5B1C10"/>
<path d="M247.863 61.4943C247.863 61.4943 248.111 57.423 249.104 56.6486C250.097 55.8742 250.241 57.8149 250.241 57.8149C250.241 57.8149 258.271 56.1167 259.322 64.1943C259.322 64.1943 255.713 59.7995 247.863 61.4943Z" fill="#5B1C10"/>
<path d="M238.92 62.1889C238.92 62.1889 238.672 58.1176 237.679 57.3433C236.686 56.5689 236.542 58.5095 236.542 58.5095C236.542 58.5095 228.512 56.8114 227.461 64.8889C227.461 64.8889 231.07 60.4941 238.92 62.1889Z" fill="#5B1C10"/>
<path d="M250.507 73.6131C248.783 73.6028 247.396 71.8543 247.409 69.7077C247.422 67.5611 248.83 65.8292 250.554 65.8395C252.277 65.8498 253.664 67.5984 253.652 69.745C253.639 71.8916 252.231 73.6234 250.507 73.6131Z" fill="#5B1C10"/>
<path d="M249.46 69.8846C248.889 70.0447 248.295 69.7111 248.135 69.1395C247.975 68.5679 248.309 67.9748 248.88 67.8147C249.452 67.6547 250.045 67.9883 250.205 68.5599C250.365 69.1314 250.032 69.7246 249.46 69.8846Z" fill="white"/>
<path d="M234.083 72.8941C232.359 72.8838 230.972 71.1352 230.985 68.9886C230.998 66.842 232.405 65.1101 234.129 65.1204C235.853 65.1307 237.24 66.8793 237.227 69.0259C237.214 71.1725 235.807 72.9044 234.083 72.8941Z" fill="#5B1C10"/>
<path d="M233.036 69.1655C232.464 69.3255 231.871 68.9919 231.711 68.4203C231.551 67.8487 231.885 67.2556 232.456 67.0955C233.028 66.9355 233.621 67.2691 233.781 67.8407C233.941 68.4123 233.608 69.0054 233.036 69.1655Z" fill="white"/>
</g>
<g filter="url(#filter0_bi_394_323)">
<rect x="0.898193" y="100.98" width="118.089" height="147.959" rx="6.90946" fill="white" fill-opacity="0.1"/>
<rect x="0.898193" y="100.98" width="118.089" height="147.959" rx="6.90946" fill="url(#paint0_linear_394_323)" fill-opacity="0.08"/>
<rect x="1.83865" y="101.921" width="116.208" height="146.078" rx="5.969" stroke="url(#paint1_linear_394_323)" stroke-opacity="0.1" stroke-width="1.88091"/>
</g>
<g filter="url(#filter1_bi_394_323)">
<rect width="120.173" height="147.959" rx="6.90946" transform="matrix(-1 0 0 1 130.796 108.621)" fill="white"/>
<rect width="120.173" height="147.959" rx="6.90946" transform="matrix(-1 0 0 1 130.796 108.621)" fill="url(#paint2_linear_394_323)" fill-opacity="0.08"/>
<rect x="-0.940454" y="0.940454" width="118.292" height="146.078" rx="5.969" transform="matrix(-1 0 0 1 128.915 108.621)" stroke="url(#paint3_linear_394_323)" stroke-opacity="0.1" stroke-width="1.88091"/>
</g>
<circle cx="46.2275" cy="151.172" r="20.3223" fill="#83B7AD"/>
<path d="M51.1798 151.393C50.4501 152.003 48.2898 154.095 47.9824 157.671C47.9688 157.829 47.8336 157.949 47.6749 157.949H44.6953C44.5365 157.949 44.4013 157.829 44.3877 157.671C44.0793 154.095 41.9196 152.003 41.1902 151.393C41.0618 151.285 41.0438 151.094 41.1495 150.965C42.8804 148.838 44.7162 145.33 45.6172 143.512C45.6572 143.431 45.7783 143.461 45.7783 143.551V151.222C45.5589 151.358 45.413 151.599 45.413 151.877C45.413 152.357 45.85 152.734 46.3466 152.633C46.6387 152.573 46.8757 152.339 46.9387 152.047C47.013 151.703 46.8556 151.385 46.5918 151.222V143.553C46.5918 143.463 46.7129 143.434 46.7529 143.515C47.6547 145.333 49.4896 148.839 51.2205 150.965C51.3262 151.094 51.3083 151.285 51.1798 151.393Z" fill="white"/>
<path d="M48.1058 161.301H44.2643C44.0188 161.301 43.8198 161.102 43.8198 160.856V159.124C43.8198 158.878 44.0188 158.679 44.2643 158.679H48.1058C48.3513 158.679 48.5503 158.878 48.5503 159.124V160.856C48.5503 161.102 48.3513 161.301 48.1058 161.301Z" fill="white"/>
<path d="M36.2118 141.351H56.1947" stroke="white" stroke-width="0.562362" stroke-miterlimit="10"/>
<path d="M36.2119 141.99C36.5331 141.99 36.7935 141.73 36.7935 141.409C36.7935 141.088 36.5331 140.827 36.2119 140.827C35.8906 140.827 35.6302 141.088 35.6302 141.409C35.6302 141.73 35.8906 141.99 36.2119 141.99Z" fill="#DF9334"/>
<path d="M56.1948 141.99C56.516 141.99 56.7764 141.73 56.7764 141.409C56.7764 141.088 56.516 140.827 56.1948 140.827C55.8736 140.827 55.6132 141.088 55.6132 141.409C55.6132 141.73 55.8736 141.99 56.1948 141.99Z" fill="#DF9334"/>
<path d="M37.286 150.275C37.286 145.35 41.2785 141.357 46.2034 141.357C51.1283 141.357 55.1208 145.35 55.1208 150.275" stroke="white" stroke-width="0.562362" stroke-miterlimit="10"/>
<path d="M46.9076 140.575H45.4989V141.984H46.9076V140.575Z" fill="#B9233E"/>
<path d="M28.4529 188.026L29.7868 183.336H30.4329L30.0591 185.159L28.6237 190.056H27.9822L28.4529 188.026ZM27.073 183.336L28.1345 187.933L28.4529 190.056H27.816L26.1868 183.336H27.073ZM32.1591 187.929L33.1975 183.336H34.0883L32.4637 190.056H31.8268L32.1591 187.929ZM30.5298 183.336L31.8268 188.026L32.2975 190.056H31.656L30.2714 185.159L29.8929 183.336H30.5298ZM35.9896 182.967V190.056H35.1358V182.967H35.9896ZM35.7865 187.37L35.4312 187.356C35.4342 187.015 35.485 186.699 35.5835 186.41C35.6819 186.118 35.8204 185.864 35.9988 185.649C36.1773 185.433 36.3896 185.267 36.6358 185.15C36.885 185.03 37.1604 184.97 37.4619 184.97C37.7081 184.97 37.9296 185.004 38.1265 185.072C38.3234 185.136 38.4911 185.241 38.6296 185.386C38.7711 185.53 38.8788 185.718 38.9527 185.949C39.0265 186.176 39.0634 186.455 39.0634 186.784V190.056H38.205V186.775C38.205 186.513 38.1665 186.304 38.0896 186.147C38.0127 185.987 37.9004 185.872 37.7527 185.801C37.605 185.727 37.4234 185.69 37.2081 185.69C36.9958 185.69 36.8019 185.735 36.6265 185.824C36.4542 185.913 36.305 186.036 36.1788 186.193C36.0558 186.35 35.9588 186.53 35.8881 186.733C35.8204 186.933 35.7865 187.146 35.7865 187.37ZM41.4586 185.063V190.056H40.6002V185.063H41.4586ZM40.5355 183.738C40.5355 183.599 40.5771 183.483 40.6602 183.387C40.7463 183.292 40.8725 183.244 41.0386 183.244C41.2017 183.244 41.3263 183.292 41.4125 183.387C41.5017 183.483 41.5463 183.599 41.5463 183.738C41.5463 183.87 41.5017 183.984 41.4125 184.079C41.3263 184.172 41.2017 184.218 41.0386 184.218C40.8725 184.218 40.7463 184.172 40.6602 184.079C40.5771 183.984 40.5355 183.87 40.5355 183.738ZM45.1092 185.063V185.718H42.4092V185.063H45.1092ZM43.323 183.849H44.1769V188.819C44.1769 188.989 44.203 189.116 44.2553 189.202C44.3076 189.289 44.3753 189.346 44.4584 189.373C44.5415 189.401 44.6307 189.415 44.7261 189.415C44.7969 189.415 44.8707 189.409 44.9476 189.396C45.0276 189.381 45.0876 189.369 45.1276 189.359L45.1322 190.056C45.0645 190.078 44.9753 190.098 44.8645 190.116C44.7569 190.138 44.6261 190.149 44.4722 190.149C44.263 190.149 44.0707 190.107 43.8953 190.024C43.7199 189.941 43.5799 189.802 43.4753 189.609C43.3738 189.412 43.323 189.147 43.323 188.815V183.849ZM48.372 190.149C48.0243 190.149 47.7089 190.09 47.4259 189.973C47.1459 189.853 46.9043 189.686 46.7013 189.47C46.5013 189.255 46.3474 188.999 46.2397 188.704C46.132 188.409 46.0782 188.086 46.0782 187.735V187.541C46.0782 187.135 46.1382 186.773 46.2582 186.456C46.3782 186.136 46.5413 185.866 46.7474 185.644C46.9536 185.423 47.1874 185.255 47.4489 185.141C47.7105 185.027 47.9813 184.97 48.2612 184.97C48.6182 184.97 48.9259 185.032 49.1843 185.155C49.4459 185.278 49.6597 185.45 49.8258 185.672C49.992 185.89 50.1151 186.149 50.1951 186.447C50.2751 186.743 50.3151 187.066 50.3151 187.416V187.799H46.5859V187.103H49.4612V187.038C49.4489 186.816 49.4028 186.601 49.3228 186.392C49.2459 186.183 49.1228 186.01 48.9536 185.875C48.7843 185.739 48.5536 185.672 48.2612 185.672C48.0674 185.672 47.8889 185.713 47.7259 185.796C47.5628 185.876 47.4228 185.996 47.3059 186.156C47.189 186.316 47.0982 186.512 47.0336 186.743C46.969 186.973 46.9366 187.239 46.9366 187.541V187.735C46.9366 187.972 46.969 188.195 47.0336 188.404C47.1013 188.61 47.1982 188.792 47.3243 188.949C47.4536 189.106 47.6089 189.229 47.7905 189.318C47.9751 189.407 48.1843 189.452 48.4182 189.452C48.7197 189.452 48.9751 189.39 49.1843 189.267C49.3935 189.144 49.5766 188.979 49.7335 188.773L50.2505 189.184C50.1428 189.347 50.0058 189.502 49.8397 189.65C49.6735 189.798 49.4689 189.918 49.2259 190.01C48.9859 190.102 48.7012 190.149 48.372 190.149ZM51.4964 182.967H52.3549V189.087L52.281 190.056H51.4964V182.967ZM55.7287 187.518V187.615C55.7287 187.978 55.6856 188.315 55.5995 188.626C55.5133 188.933 55.3872 189.201 55.221 189.429C55.0548 189.656 54.8518 189.833 54.6118 189.959C54.3718 190.086 54.0964 190.149 53.7856 190.149C53.4687 190.149 53.1902 190.095 52.9503 189.987C52.7133 189.876 52.5133 189.718 52.3503 189.512C52.1872 189.306 52.0564 189.056 51.958 188.764C51.8626 188.472 51.7964 188.142 51.7595 187.776V187.352C51.7964 186.983 51.8626 186.652 51.958 186.359C52.0564 186.067 52.1872 185.818 52.3503 185.612C52.5133 185.403 52.7133 185.244 52.9503 185.136C53.1872 185.026 53.4626 184.97 53.7764 184.97C54.0902 184.97 54.3687 185.032 54.6118 185.155C54.8548 185.275 55.0579 185.447 55.221 185.672C55.3872 185.896 55.5133 186.166 55.5995 186.479C55.6856 186.79 55.7287 187.136 55.7287 187.518ZM54.8702 187.615V187.518C54.8702 187.269 54.8472 187.035 54.801 186.816C54.7548 186.595 54.681 186.401 54.5795 186.235C54.4779 186.066 54.3441 185.933 54.1779 185.838C54.0118 185.739 53.8072 185.69 53.5641 185.69C53.3487 185.69 53.161 185.727 53.001 185.801C52.8441 185.875 52.7103 185.975 52.5995 186.101C52.4887 186.224 52.3979 186.366 52.3272 186.526C52.2595 186.683 52.2087 186.846 52.1749 187.015V188.127C52.2241 188.342 52.3041 188.55 52.4149 188.75C52.5287 188.947 52.6795 189.109 52.8672 189.235C53.0579 189.361 53.2933 189.424 53.5733 189.424C53.8041 189.424 54.001 189.378 54.1641 189.286C54.3302 189.19 54.4641 189.059 54.5656 188.893C54.6702 188.727 54.7472 188.535 54.7964 188.316C54.8456 188.098 54.8702 187.864 54.8702 187.615ZM56.7716 187.615V187.509C56.7716 187.149 56.8239 186.815 56.9285 186.507C57.0331 186.196 57.1839 185.927 57.3808 185.699C57.5777 185.469 57.8162 185.29 58.0962 185.164C58.3762 185.035 58.69 184.97 59.0377 184.97C59.3885 184.97 59.7038 185.035 59.9838 185.164C60.2669 185.29 60.5069 185.469 60.7038 185.699C60.9038 185.927 61.0561 186.196 61.1608 186.507C61.2654 186.815 61.3177 187.149 61.3177 187.509V187.615C61.3177 187.975 61.2654 188.309 61.1608 188.616C61.0561 188.924 60.9038 189.193 60.7038 189.424C60.5069 189.652 60.2685 189.83 59.9885 189.959C59.7115 190.086 59.3977 190.149 59.0469 190.149C58.6962 190.149 58.3808 190.086 58.1008 189.959C57.8208 189.83 57.5808 189.652 57.3808 189.424C57.1839 189.193 57.0331 188.924 56.9285 188.616C56.8239 188.309 56.7716 187.975 56.7716 187.615ZM57.6254 187.509V187.615C57.6254 187.864 57.6546 188.099 57.7131 188.321C57.7716 188.539 57.8593 188.733 57.9762 188.902C58.0962 189.072 58.2454 189.206 58.4239 189.304C58.6023 189.399 58.81 189.447 59.0469 189.447C59.2808 189.447 59.4854 189.399 59.6608 189.304C59.8392 189.206 59.9869 189.072 60.1038 188.902C60.2208 188.733 60.3085 188.539 60.3669 188.321C60.4285 188.099 60.4592 187.864 60.4592 187.615V187.509C60.4592 187.263 60.4285 187.03 60.3669 186.812C60.3085 186.59 60.2192 186.395 60.0992 186.226C59.9823 186.053 59.8346 185.918 59.6562 185.819C59.4808 185.721 59.2746 185.672 59.0377 185.672C58.8039 185.672 58.5977 185.721 58.4192 185.819C58.2439 185.918 58.0962 186.053 57.9762 186.226C57.8593 186.395 57.7716 186.59 57.7131 186.812C57.6546 187.03 57.6254 187.263 57.6254 187.509ZM65.5221 189.202V186.632C65.5221 186.435 65.4821 186.264 65.4021 186.119C65.3251 185.972 65.2082 185.858 65.0513 185.778C64.8944 185.698 64.7005 185.658 64.4698 185.658C64.2544 185.658 64.0652 185.695 63.9021 185.769C63.7421 185.843 63.6159 185.939 63.5236 186.059C63.4344 186.179 63.3898 186.309 63.3898 186.447H62.5359C62.5359 186.269 62.5821 186.092 62.6744 185.916C62.7667 185.741 62.899 185.583 63.0713 185.441C63.2467 185.296 63.4559 185.183 63.699 185.099C63.9452 185.013 64.219 184.97 64.5205 184.97C64.8836 184.97 65.2036 185.032 65.4805 185.155C65.7605 185.278 65.979 185.464 66.1359 185.713C66.2959 185.959 66.3759 186.269 66.3759 186.641V188.967C66.3759 189.133 66.3898 189.31 66.4174 189.498C66.4482 189.686 66.4928 189.847 66.5513 189.982V190.056H65.6605C65.6175 189.958 65.5836 189.827 65.559 189.664C65.5344 189.498 65.5221 189.344 65.5221 189.202ZM65.6698 187.029L65.679 187.629H64.8159C64.5728 187.629 64.3559 187.649 64.1652 187.689C63.9744 187.726 63.8144 187.782 63.6852 187.859C63.5559 187.936 63.4575 188.033 63.3898 188.15C63.3221 188.264 63.2882 188.398 63.2882 188.552C63.2882 188.709 63.3236 188.852 63.3944 188.981C63.4652 189.11 63.5713 189.213 63.7129 189.29C63.8575 189.364 64.0344 189.401 64.2436 189.401C64.5052 189.401 64.7359 189.346 64.9359 189.235C65.1359 189.124 65.2944 188.989 65.4113 188.829C65.5313 188.669 65.5959 188.513 65.6051 188.362L65.9698 188.773C65.9482 188.902 65.8898 189.046 65.7944 189.202C65.699 189.359 65.5713 189.51 65.4113 189.655C65.2544 189.796 65.0667 189.915 64.8482 190.01C64.6328 190.102 64.3898 190.149 64.119 190.149C63.7805 190.149 63.4836 190.082 63.2282 189.95C62.9759 189.818 62.779 189.641 62.6375 189.419C62.499 189.195 62.4298 188.944 62.4298 188.667C62.4298 188.399 62.4821 188.164 62.5867 187.961C62.6913 187.755 62.8421 187.584 63.039 187.449C63.2359 187.31 63.4729 187.206 63.7498 187.135C64.0267 187.064 64.3359 187.029 64.6775 187.029H65.6698ZM68.7619 185.847V190.056H67.908V185.063H68.7388L68.7619 185.847ZM70.3218 185.035L70.3172 185.829C70.2465 185.813 70.1788 185.804 70.1142 185.801C70.0526 185.795 69.9818 185.792 69.9018 185.792C69.7049 185.792 69.5311 185.823 69.3803 185.884C69.2295 185.946 69.1019 186.032 68.9972 186.143C68.8926 186.253 68.8095 186.386 68.748 186.539C68.6895 186.69 68.6511 186.856 68.6326 187.038L68.3926 187.176C68.3926 186.875 68.4219 186.592 68.4803 186.327C68.5419 186.063 68.6357 185.829 68.7619 185.626C68.888 185.419 69.048 185.259 69.2419 185.146C69.4388 185.029 69.6726 184.97 69.9434 184.97C70.0049 184.97 70.0757 184.978 70.1557 184.993C70.2357 185.006 70.2911 185.019 70.3218 185.035ZM74.3555 189.087V182.967H75.2139V190.056H74.4293L74.3555 189.087ZM70.9955 187.615V187.518C70.9955 187.136 71.0417 186.79 71.134 186.479C71.2293 186.166 71.3632 185.896 71.5355 185.672C71.7109 185.447 71.9186 185.275 72.1586 185.155C72.4016 185.032 72.6724 184.97 72.9709 184.97C73.2847 184.97 73.5586 185.026 73.7924 185.136C74.0293 185.244 74.2293 185.403 74.3924 185.612C74.5585 185.818 74.6893 186.067 74.7847 186.359C74.8801 186.652 74.9462 186.983 74.9832 187.352V187.776C74.9493 188.142 74.8832 188.472 74.7847 188.764C74.6893 189.056 74.5585 189.306 74.3924 189.512C74.2293 189.718 74.0293 189.876 73.7924 189.987C73.5555 190.095 73.2786 190.149 72.9616 190.149C72.6693 190.149 72.4016 190.086 72.1586 189.959C71.9186 189.833 71.7109 189.656 71.5355 189.429C71.3632 189.201 71.2293 188.933 71.134 188.626C71.0417 188.315 70.9955 187.978 70.9955 187.615ZM71.854 187.518V187.615C71.854 187.864 71.8786 188.098 71.9278 188.316C71.9801 188.535 72.0601 188.727 72.1678 188.893C72.2755 189.059 72.4124 189.19 72.5786 189.286C72.7447 189.378 72.9432 189.424 73.1739 189.424C73.457 189.424 73.6893 189.364 73.8709 189.244C74.0555 189.124 74.2032 188.966 74.3139 188.769C74.4247 188.572 74.5109 188.358 74.5724 188.127V187.015C74.5355 186.846 74.4816 186.683 74.4109 186.526C74.3432 186.366 74.2539 186.224 74.1432 186.101C74.0355 185.975 73.9016 185.875 73.7416 185.801C73.5847 185.727 73.3986 185.69 73.1832 185.69C72.9493 185.69 72.7478 185.739 72.5786 185.838C72.4124 185.933 72.2755 186.066 72.1678 186.235C72.0601 186.401 71.9801 186.595 71.9278 186.816C71.8786 187.035 71.854 187.269 71.854 187.518Z" fill="#0D0D0D"/>
<rect x="25.9053" y="201.704" width="89.6089" height="6.25179" fill="#83B7AD"/>
<rect x="25.9053" y="215.596" width="89.6089" height="6.25179" fill="#83B7AD"/>
<rect x="25.9053" y="228.1" width="89.6089" height="6.25179" fill="#83B7AD"/>
<g filter="url(#filter2_bi_394_323)">
<rect width="116.7" height="93.0821" rx="6.90946" transform="matrix(-1 0 0 1 426.714 311.457)" fill="white" fill-opacity="0.1"/>
<rect width="116.7" height="93.0821" rx="6.90946" transform="matrix(-1 0 0 1 426.714 311.457)" fill="url(#paint4_linear_394_323)" fill-opacity="0.08"/>
<rect x="-0.940454" y="0.940454" width="114.819" height="91.2012" rx="5.969" transform="matrix(-1 0 0 1 424.833 311.457)" stroke="url(#paint5_linear_394_323)" stroke-opacity="0.1" stroke-width="1.88091"/>
</g>
<g filter="url(#filter3_bi_394_323)">
<rect x="298.205" y="316.32" width="118.784" height="93.0821" rx="6.90946" fill="white"/>
<rect x="298.205" y="316.32" width="118.784" height="93.0821" rx="6.90946" fill="url(#paint6_linear_394_323)" fill-opacity="0.08"/>
<rect x="299.146" y="317.26" width="116.903" height="91.2012" rx="5.969" stroke="url(#paint7_linear_394_323)" stroke-opacity="0.1" stroke-width="1.88091"/>
</g>
<rect x="314.877" y="333.686" width="50.7089" height="4.16786" rx="2.08393" fill="#EFE3EC"/>
<rect x="314.877" y="339.938" width="29.8696" height="4.16786" rx="2.08393" fill="#EFE3EC"/>
<rect x="378.784" y="341.327" width="18.0607" height="18.0607" rx="5.55714" fill="#F4C584"/>
<rect x="310.014" y="360.777" width="6.25179" height="40.2893" fill="#77B0A8"/>
<rect x="335.021" y="371.196" width="6.25179" height="29.8696" fill="#EE7C92"/>
<rect x="360.029" y="378.837" width="6.25179" height="22.2286" fill="#92BEFA"/>
<rect x="382.952" y="387.868" width="6.25179" height="13.1982" fill="#EE7C92"/>
<rect x="317.655" y="372.586" width="6.25179" height="28.4804" fill="#EF988F"/>
<rect x="342.662" y="380.227" width="6.25179" height="20.8393" fill="#FCECEB"/>
<rect x="367.67" y="385.784" width="6.25179" height="15.2821" fill="#F18A7E"/>
<rect x="390.593" y="392.036" width="6.25179" height="9.03036" fill="#EF9890"/>
<defs>
<filter id="filter0_bi_394_323" x="-27.3154" y="72.7667" width="174.516" height="204.386" filterUnits="userSpaceOnUse" color-interpolation-filters="sRGB">
<feFlood flood-opacity="0" result="BackgroundImageFix"/>
<feGaussianBlur in="BackgroundImage" stdDeviation="14.1068"/>
<feComposite in2="SourceAlpha" operator="in" result="effect1_backgroundBlur_394_323"/>
<feBlend mode="normal" in="SourceGraphic" in2="effect1_backgroundBlur_394_323" result="shape"/>
<feColorMatrix in="SourceAlpha" type="matrix" values="0 0 0 0 0 0 0 0 0 0 0 0 0 0 0 0 0 0 127 0" result="hardAlpha"/>
<feOffset dy="4.70227"/>
<feGaussianBlur stdDeviation="9.40454"/>
<feComposite in2="hardAlpha" operator="arithmetic" k2="-1" k3="1"/>
<feColorMatrix type="matrix" values="0 0 0 0 1 0 0 0 0 1 0 0 0 0 1 0 0 0 0.4 0"/>
<feBlend mode="normal" in2="shape" result="effect2_innerShadow_394_323"/>
</filter>
<filter id="filter1_bi_394_323" x="-17.5905" y="80.4078" width="176.6" height="204.386" filterUnits="userSpaceOnUse" color-interpolation-filters="sRGB">
<feFlood flood-opacity="0" result="BackgroundImageFix"/>
<feGaussianBlur in="BackgroundImage" stdDeviation="14.1068"/>
<feComposite in2="SourceAlpha" operator="in" result="effect1_backgroundBlur_394_323"/>
<feBlend mode="normal" in="SourceGraphic" in2="effect1_backgroundBlur_394_323" result="shape"/>
<feColorMatrix in="SourceAlpha" type="matrix" values="0 0 0 0 0 0 0 0 0 0 0 0 0 0 0 0 0 0 127 0" result="hardAlpha"/>
<feOffset dy="4.70227"/>
<feGaussianBlur stdDeviation="9.40454"/>
<feComposite in2="hardAlpha" operator="arithmetic" k2="-1" k3="1"/>
<feColorMatrix type="matrix" values="0 0 0 0 1 0 0 0 0 1 0 0 0 0 1 0 0 0 0.4 0"/>
<feBlend mode="normal" in2="shape" result="effect2_innerShadow_394_323"/>
</filter>
<filter id="filter2_bi_394_323" x="281.801" y="283.244" width="173.127" height="149.509" filterUnits="userSpaceOnUse" color-interpolation-filters="sRGB">
<feFlood flood-opacity="0" result="BackgroundImageFix"/>
<feGaussianBlur in="BackgroundImage" stdDeviation="14.1068"/>
<feComposite in2="SourceAlpha" operator="in" result="effect1_backgroundBlur_394_323"/>
<feBlend mode="normal" in="SourceGraphic" in2="effect1_backgroundBlur_394_323" result="shape"/>
<feColorMatrix in="SourceAlpha" type="matrix" values="0 0 0 0 0 0 0 0 0 0 0 0 0 0 0 0 0 0 127 0" result="hardAlpha"/>
<feOffset dy="4.70227"/>
<feGaussianBlur stdDeviation="9.40454"/>
<feComposite in2="hardAlpha" operator="arithmetic" k2="-1" k3="1"/>
<feColorMatrix type="matrix" values="0 0 0 0 1 0 0 0 0 1 0 0 0 0 1 0 0 0 0.4 0"/>
<feBlend mode="normal" in2="shape" result="effect2_innerShadow_394_323"/>
</filter>
<filter id="filter3_bi_394_323" x="269.992" y="288.106" width="175.211" height="149.509" filterUnits="userSpaceOnUse" color-interpolation-filters="sRGB">
<feFlood flood-opacity="0" result="BackgroundImageFix"/>
<feGaussianBlur in="BackgroundImage" stdDeviation="14.1068"/>
<feComposite in2="SourceAlpha" operator="in" result="effect1_backgroundBlur_394_323"/>
<feBlend mode="normal" in="SourceGraphic" in2="effect1_backgroundBlur_394_323" result="shape"/>
<feColorMatrix in="SourceAlpha" type="matrix" values="0 0 0 0 0 0 0 0 0 0 0 0 0 0 0 0 0 0 127 0" result="hardAlpha"/>
<feOffset dy="4.70227"/>
<feGaussianBlur stdDeviation="9.40454"/>
<feComposite in2="hardAlpha" operator="arithmetic" k2="-1" k3="1"/>
<feColorMatrix type="matrix" values="0 0 0 0 1 0 0 0 0 1 0 0 0 0 1 0 0 0 0.4 0"/>
<feBlend mode="normal" in2="shape" result="effect2_innerShadow_394_323"/>
</filter>
<linearGradient id="paint0_linear_394_323" x1="5.81858" y1="130.572" x2="135.436" y2="144.94" gradientUnits="userSpaceOnUse">
<stop stop-color="#FE82DB"/>
<stop offset="1" stop-color="#68E4FF"/>
</linearGradient>
<linearGradient id="paint1_linear_394_323" x1="4.58848" y1="107.706" x2="118.987" y2="107.706" gradientUnits="userSpaceOnUse">
<stop stop-color="#FD84DC"/>
<stop offset="1" stop-color="#7FD6FA"/>
</linearGradient>
<linearGradient id="paint2_linear_394_323" x1="5.00722" y1="29.5918" x2="136.855" y2="44.4651" gradientUnits="userSpaceOnUse">
<stop stop-color="#FE82DB"/>
<stop offset="1" stop-color="#68E4FF"/>
</linearGradient>
<linearGradient id="paint3_linear_394_323" x1="3.75541" y1="6.72541" x2="120.173" y2="6.72541" gradientUnits="userSpaceOnUse">
<stop stop-color="#FD84DC"/>
<stop offset="1" stop-color="#7FD6FA"/>
</linearGradient>
<linearGradient id="paint4_linear_394_323" x1="4.8625" y1="18.6164" x2="130.713" y2="40.5307" gradientUnits="userSpaceOnUse">
<stop stop-color="#FE82DB"/>
<stop offset="1" stop-color="#68E4FF"/>
</linearGradient>
<linearGradient id="paint5_linear_394_323" x1="3.64688" y1="4.23101" x2="116.7" y2="4.23101" gradientUnits="userSpaceOnUse">
<stop stop-color="#FD84DC"/>
<stop offset="1" stop-color="#7FD6FA"/>
</linearGradient>
<linearGradient id="paint6_linear_394_323" x1="303.155" y1="334.936" x2="431.117" y2="357.616" gradientUnits="userSpaceOnUse">
<stop stop-color="#FE82DB"/>
<stop offset="1" stop-color="#68E4FF"/>
</linearGradient>
<linearGradient id="paint7_linear_394_323" x1="301.917" y1="320.551" x2="416.989" y2="320.551" gradientUnits="userSpaceOnUse">
<stop stop-color="#FD84DC"/>
<stop offset="1" stop-color="#7FD6FA"/>
</linearGradient>
<clipPath id="clip0_394_323">
<rect width="265.354" height="406.366" fill="white" transform="translate(105.095 16.2339)"/>
</clipPath>
</defs>
</svg>
